<svg version="1.2" xmlns="http://www.w3.org/2000/svg" viewBox="0 0 712 688" width="774" height="748">
	<title>messengercraft-svg</title>
	<style>
		.s0 { fill: #00A86B } 
	</style>
	<g>
		<path fill-rule="evenodd" class="s0" d="m380.9 68.4c64.3 9.7 123 43.2 165.9 94.6 53.8 64.6 74.4 147.4 57.3 230.1-10.4 49.7-34 94-70 131.2-40.3 41.6-88.3 67.3-146.6 78.3-14.4 2.8-16.2 2.9-45 2.9-26.9 0-31.4-0.2-43.5-2.3-46.8-8.1-85.7-25-123-53.5-12.6-9.7-38.1-34.9-47.2-46.7-23.3-30.3-39-62-48.1-97-29.7-113.9 14.9-230.7 113.1-296 35.8-23.8 74.8-37.8 119.8-43 11.8-1.3 55-0.4 67.3 1.4zm-66.4 86.7c-16.9 2.5-38.7 9.5-55.6 18-50.8 25.4-88.6 77.6-97.5 134.5-2.2 14.6-2.2 41.2 0 55.8 3.3 21.1 12.8 46.4 22.1 58.8l3.5 4.8h58.5l0.3 9.3c1.3 40.3 28.8 69.9 70.9 76.2 12.6 1.9 151.3 2.2 151.3 0.4 0-0.6-18.9-20-42.1-43.1-23.2-23.1-41.9-42.1-41.7-42.3 0.1-0.1 25.5-0.5 56.2-0.8 52.5-0.5 56-0.6 57.7-2.4 3.6-3.7 11.8-21.2 15.8-33.6 6.3-19.5 8.3-32.7 8.4-54.7 0-15.9-0.4-20.4-2.7-32.2-9.3-48.8-35.4-89.6-75.1-117.5-22.9-16-47.8-25.9-77.5-30.8-10.4-1.6-42-1.9-52.5-0.4z"/>
	</g>
</svg>